<svg xmlns="http://www.w3.org/2000/svg" height="55" viewBox="0 0 236 55" width="236"><path d="m223.44 37.97.33.38c2.47 2.8 4.88 5.77 7.23 8.92l3.29-2.31 1.5 9.95-8.86-4.77 3.25-2.3-.47-.62a140.6 140.6 0 0 0-6.7-8.21l-.32-.38zm-220 7.64.34.37c2.2 2.48 5.76 3.7 10.7 3.65h.5l.01 1h-.5c-5.2.06-9.03-1.26-11.46-3.98l-.33-.38zm34.6-1.71.35.93-.46.18a114.57 114.57 0 0 1-11.46 3.75l-.48.12-.26-.96.48-.13c3.44-.9 7.23-2.14 11.36-3.72zm21.83-9.83.44.89-.44.22c-3.8 1.9-7.41 3.63-10.85 5.18l-.45.21-.41-.91.45-.2c3.42-1.55 7.02-3.27 10.81-5.17zM2.69 22.52l.95.3-.15.48A52.71 52.71 0 0 0 1.06 34.9l-.03.5-1-.07.03-.5C.31 31.44 1.14 27.5 2.54 23zm203.02-.84.4.3c3.17 2.35 6.26 4.92 9.27 7.72l.36.34-.68.73-.37-.34a106.02 106.02 0 0 0-9.17-7.65l-.4-.3zM81.08 22.96l.45.9-.45.22a274.5 274.5 0 0 0-10.56 5.56l-.44.23-.47-.88.44-.23 2.21-1.2c2.82-1.53 5.6-3 8.37-4.38zm22-9.6.36.94-.47.17A207.81 207.81 0 0 0 91.88 19l-.46.2-.4-.91.46-.2c3.76-1.66 7.48-3.18 11.14-4.54zm81.55-3.32.47.18a89.64 89.64 0 0 1 10.9 5.2l.43.24-.5.87-.43-.24a88.64 88.64 0 0 0-10.77-5.14l-.47-.18zM12 .49l.9.44-.23.45c-1.92 3.85-3.6 7.47-5.04 10.86l-.2.46-.92-.4.2-.45C8.16 8.44 9.85 4.8 11.78.94zm114.21 6.1.21.98-.49.1c-3.8.81-7.66 1.8-11.58 2.98l-.48.14-.29-.96.48-.14a152.7 152.7 0 0 1 11.66-3zm34.96-2.18.5.06c4.05.44 8 1.13 11.88 2.08l.49.12-.24.97-.49-.12a90.74 90.74 0 0 0-11.75-2.06l-.5-.05zm-11-.52.01 1-.5.01c-3.9.05-7.87.31-11.92.8l-.5.05-.11-1 .5-.05c4.08-.49 8.09-.75 12.02-.8z"></path></svg>